<mxfile host="app.diagrams.net" modified="2021-03-12T16:37:03.309Z" agent="5.0 (Windows NT 10.0; Win64; x64) AppleWebKit/537.36 (KHTML, like Gecko) Chrome/89.0.4389.82 Safari/537.36" etag="G_TQp3ElkWcgvg7r-YSd" version="14.4.7" type="github">
  <diagram id="dUkJ0Mvk4Xs7ZeIWtXEY" name="Page-1">
    <mxGraphModel dx="834" dy="1067" grid="1" gridSize="10" guides="1" tooltips="1" connect="1" arrows="1" fold="1" page="1" pageScale="1" pageWidth="850" pageHeight="1100" math="0" shadow="0">
      <root>
        <mxCell id="0" />
        <mxCell id="1" parent="0" />
        <mxCell id="kzGnQwJOjIOudrPaAa9H-1" value="" style="rounded=0;whiteSpace=wrap;html=1;" vertex="1" parent="1">
          <mxGeometry x="300" y="550" width="450" height="260" as="geometry" />
        </mxCell>
        <mxCell id="kzGnQwJOjIOudrPaAa9H-2" value="PopUp Manager" style="text;html=1;align=center;verticalAlign=middle;resizable=0;points=[];autosize=1;" vertex="1" parent="1">
          <mxGeometry x="300" y="520" width="100" height="20" as="geometry" />
        </mxCell>
        <mxCell id="kzGnQwJOjIOudrPaAa9H-3" value="" style="rounded=0;whiteSpace=wrap;html=1;" vertex="1" parent="1">
          <mxGeometry x="320" y="600" width="120" height="30" as="geometry" />
        </mxCell>
        <mxCell id="kzGnQwJOjIOudrPaAa9H-4" value="" style="rounded=0;whiteSpace=wrap;html=1;" vertex="1" parent="1">
          <mxGeometry x="320" y="670" width="120" height="30" as="geometry" />
        </mxCell>
        <mxCell id="kzGnQwJOjIOudrPaAa9H-6" value="isOpen&lt;br&gt;&lt;br&gt;&lt;div&gt;onClickAway&lt;/div&gt;&lt;div&gt;&lt;br&gt;&lt;/div&gt;" style="text;html=1;align=center;verticalAlign=middle;resizable=0;points=[];autosize=1;" vertex="1" parent="1">
          <mxGeometry x="160" y="650" width="80" height="60" as="geometry" />
        </mxCell>
        <mxCell id="kzGnQwJOjIOudrPaAa9H-11" value="isOpen &amp;amp;&amp;amp; onClickAway =&amp;gt; prevent" style="text;html=1;align=center;verticalAlign=middle;resizable=0;points=[];autosize=1;" vertex="1" parent="1">
          <mxGeometry x="235" y="870" width="210" height="20" as="geometry" />
        </mxCell>
      </root>
    </mxGraphModel>
  </diagram>
</mxfile>
